<svg width="71" height="26" viewBox="0 0 71 26" fill="none" xmlns="http://www.w3.org/2000/svg">
<path d="M0.184 20H3.736V12.8H10.048V9.848H3.736V5.192H11.128V2.24H0.184V20ZM17.2471 20.336C18.0871 20.336 18.6391 20.192 19.0471 20.048L18.6151 17.432C18.3751 17.48 18.2791 17.48 18.1591 17.48C17.8231 17.48 17.4631 17.216 17.4631 16.376V0.871999H13.9351V16.232C13.9351 18.728 14.7751 20.336 17.2471 20.336ZM21.5054 20H25.0334V6.584H21.5054V20ZM23.2574 4.4C24.4814 4.4 25.3214 3.632 25.3214 2.456C25.3214 1.304 24.4814 0.559999 23.2574 0.559999C22.0334 0.559999 21.2174 1.304 21.2174 2.456C21.2174 3.632 22.0334 4.4 23.2574 4.4ZM28.7944 25.16H32.3224V21.08L32.2024 18.896C33.2104 19.832 34.3624 20.336 35.5144 20.336C38.4664 20.336 41.2264 17.696 41.2264 13.088C41.2264 8.936 39.2584 6.248 35.9464 6.248C34.5064 6.248 33.1144 6.992 32.0104 7.976H31.9384L31.6504 6.584H28.7944V25.16ZM34.7464 17.432C34.0264 17.432 33.1624 17.192 32.3224 16.448V10.52C33.2344 9.584 34.0504 9.128 34.9384 9.128C36.8104 9.128 37.6024 10.544 37.6024 13.136C37.6024 16.04 36.3544 17.432 34.7464 17.432ZM44.2398 25.16H47.7678V21.08L47.6478 18.896C48.6558 19.832 49.8078 20.336 50.9598 20.336C53.9118 20.336 56.6718 17.696 56.6718 13.088C56.6718 8.936 54.7038 6.248 51.3918 6.248C49.9518 6.248 48.5598 6.992 47.4558 7.976H47.3838L47.0958 6.584H44.2398V25.16ZM50.1918 17.432C49.4718 17.432 48.6078 17.192 47.7678 16.448V10.52C48.6797 9.584 49.4958 9.128 50.3838 9.128C52.2558 9.128 53.0478 10.544 53.0478 13.136C53.0478 16.04 51.7998 17.432 50.1918 17.432ZM60.5089 25.4C63.5329 25.4 64.9729 23.576 66.1489 20.432L70.9249 6.584H67.5409L65.6689 12.8C65.3569 14.072 65.0209 15.344 64.7329 16.616H64.6129C64.2049 15.32 63.8689 14.024 63.4609 12.8L61.3489 6.584H57.7729L63.0049 19.76L62.7889 20.552C62.3809 21.752 61.6129 22.616 60.2689 22.616C59.9329 22.616 59.5729 22.496 59.3329 22.424L58.6849 25.136C59.1889 25.304 59.7409 25.4 60.5089 25.4Z" fill="black"/>
</svg>
